%TF.GenerationSoftware,KiCad,Pcbnew,9.0.7*%
%TF.CreationDate,2026-02-09T18:39:48-05:00*%
%TF.ProjectId,555timerCES,35353574-696d-4657-9243-45532e6b6963,rev?*%
%TF.SameCoordinates,Original*%
%TF.FileFunction,Copper,L1,Top*%
%TF.FilePolarity,Positive*%
%FSLAX46Y46*%
G04 Gerber Fmt 4.6, Leading zero omitted, Abs format (unit mm)*
G04 Created by KiCad (PCBNEW 9.0.7) date 2026-02-09 18:39:48*
%MOMM*%
%LPD*%
G01*
G04 APERTURE LIST*
G04 Aperture macros list*
%AMRoundRect*
0 Rectangle with rounded corners*
0 $1 Rounding radius*
0 $2 $3 $4 $5 $6 $7 $8 $9 X,Y pos of 4 corners*
0 Add a 4 corners polygon primitive as box body*
4,1,4,$2,$3,$4,$5,$6,$7,$8,$9,$2,$3,0*
0 Add four circle primitives for the rounded corners*
1,1,$1+$1,$2,$3*
1,1,$1+$1,$4,$5*
1,1,$1+$1,$6,$7*
1,1,$1+$1,$8,$9*
0 Add four rect primitives between the rounded corners*
20,1,$1+$1,$2,$3,$4,$5,0*
20,1,$1+$1,$4,$5,$6,$7,0*
20,1,$1+$1,$6,$7,$8,$9,0*
20,1,$1+$1,$8,$9,$2,$3,0*%
%AMRotRect*
0 Rectangle, with rotation*
0 The origin of the aperture is its center*
0 $1 length*
0 $2 width*
0 $3 Rotation angle, in degrees counterclockwise*
0 Add horizontal line*
21,1,$1,$2,0,0,$3*%
G04 Aperture macros list end*
%TA.AperFunction,ComponentPad*%
%ADD10C,2.000000*%
%TD*%
%TA.AperFunction,ComponentPad*%
%ADD11RotRect,2.000000X2.000000X75.000000*%
%TD*%
%TA.AperFunction,ComponentPad*%
%ADD12RoundRect,0.312500X0.842012X0.486136X-0.486136X0.842012X-0.842012X-0.486136X0.486136X-0.842012X0*%
%TD*%
%TA.AperFunction,SMDPad,CuDef*%
%ADD13RotRect,5.700000X6.100000X345.000000*%
%TD*%
%TA.AperFunction,SMDPad,CuDef*%
%ADD14C,17.900000*%
%TD*%
%TA.AperFunction,Conductor*%
%ADD15C,0.800000*%
%TD*%
G04 APERTURE END LIST*
D10*
%TO.P,C2,2*%
%TO.N,GND*%
X119503098Y-74757366D03*
%TO.P,C2,1*%
%TO.N,Net-(U1-CV)*%
X124332727Y-76051461D03*
%TD*%
%TO.P,R1,1*%
%TO.N,+3V0*%
X115839012Y-87234167D03*
%TO.P,R1,2*%
%TO.N,Net-(U1-DIS)*%
X123199367Y-89206368D03*
%TD*%
%TO.P,R2,1*%
%TO.N,Net-(U1-DIS)*%
X124139908Y-83764366D03*
%TO.P,R2,2*%
%TO.N,Net-(U1-THR)*%
X116779553Y-81792165D03*
%TD*%
%TO.P,C1,1*%
%TO.N,GND*%
X121444239Y-67512922D03*
%TO.P,C1,2*%
%TO.N,Net-(U1-THR)*%
X117908705Y-63977388D03*
%TD*%
%TO.P,D1,2,A*%
%TO.N,Net-(D1-A)*%
X149059100Y-88091367D03*
D11*
%TO.P,D1,1,K*%
%TO.N,GND*%
X148401698Y-90544819D03*
%TD*%
D10*
%TO.P,U1,8,VCC*%
%TO.N,+3V0*%
X132572207Y-82721263D03*
%TO.P,U1,7,DIS*%
%TO.N,Net-(U1-DIS)*%
X133229607Y-80267812D03*
%TO.P,U1,6,THR*%
%TO.N,Net-(U1-THR)*%
X133887005Y-77814363D03*
%TO.P,U1,5,CV*%
%TO.N,Net-(U1-CV)*%
X134544408Y-75360908D03*
%TO.P,U1,4,R*%
%TO.N,+3V0*%
X141904763Y-77333109D03*
%TO.P,U1,3,Q*%
%TO.N,Net-(U1-Q)*%
X141247363Y-79786561D03*
%TO.P,U1,2,TR*%
%TO.N,Net-(U1-THR)*%
X140589962Y-82240009D03*
D12*
%TO.P,U1,1,GND*%
%TO.N,GND*%
X139932562Y-84693464D03*
%TD*%
D13*
%TO.P,BT2,P2*%
%TO.N,+3V0*%
X139524371Y-111697973D03*
%TO.P,BT2,P1*%
X114603487Y-105020441D03*
D14*
%TO.P,BT2,N*%
%TO.N,GND*%
X127063929Y-108359207D03*
%TD*%
D10*
%TO.P,R3,2*%
%TO.N,Net-(U1-Q)*%
X152612685Y-74829206D03*
%TO.P,R3,1*%
%TO.N,Net-(D1-A)*%
X150640484Y-82189561D03*
%TD*%
D15*
%TO.N,GND*%
X125899243Y-112705873D02*
X126252797Y-113318247D01*
X125286870Y-113059428D02*
X125899243Y-112705873D01*
X108383169Y-108530095D02*
X125286870Y-113059428D01*
X108221573Y-82087253D02*
X113171320Y-90660467D01*
X142673537Y-117718170D02*
X149462359Y-92381938D01*
X126252797Y-113318247D02*
X142673537Y-117718170D01*
X149462359Y-92381938D02*
X148401698Y-90544819D01*
X113171320Y-90660467D02*
X108383169Y-108530095D01*
%TO.N,Net-(U1-THR)*%
X133887006Y-77814364D02*
X136938172Y-83099138D01*
X135396906Y-88851223D02*
X142641350Y-90792365D01*
X144642021Y-83325756D02*
X140589963Y-82240010D01*
X136938172Y-83099138D02*
X135396906Y-88851223D01*
X142641350Y-90792365D02*
X144642021Y-83325756D01*
%TO.N,Net-(D1-A)*%
X150640484Y-82189561D02*
X149059099Y-88091365D01*
%TO.N,GND*%
X122643600Y-61104994D02*
X114916195Y-59034442D01*
X108575127Y-82699624D02*
X108751903Y-83005810D01*
X108751903Y-83005810D02*
X108221573Y-82087253D01*
X123376090Y-68030560D02*
X124600836Y-67323452D01*
X114916195Y-59034442D02*
X108575127Y-82699624D01*
X125118475Y-65391601D02*
X122643600Y-61104994D01*
X121444239Y-67512922D02*
X123376090Y-68030560D01*
%TO.N,+3V0*%
X114603486Y-105020442D02*
X116052874Y-99611257D01*
%TO.N,GND*%
X124600836Y-67323452D02*
X125118475Y-65391601D01*
%TO.N,Net-(U1-Q)*%
X139219133Y-70722776D02*
X138203268Y-74514034D01*
X152259131Y-74216833D02*
X139219133Y-70722776D01*
X138203268Y-74514034D02*
X141247363Y-79786562D01*
X152612684Y-74829206D02*
X152259131Y-74216833D01*
%TO.N,+3V0*%
X132990138Y-94935626D02*
X140520825Y-107979158D01*
X126953103Y-93318006D02*
X132990138Y-94935626D01*
X140520825Y-107979158D02*
X139524372Y-111697973D01*
X116052874Y-99611257D02*
X126953103Y-93318006D01*
%TO.N,GND*%
X121444239Y-67512922D02*
X119503098Y-74757366D01*
%TO.N,Net-(U1-DIS)*%
X127718675Y-86597144D02*
X128716423Y-82873502D01*
X123199366Y-89206370D02*
X127718675Y-86597144D01*
X128716423Y-82873502D02*
X133229608Y-80267812D01*
%TO.N,GND*%
X126239193Y-70868278D02*
X127921517Y-64589761D01*
%TO.N,+3V0*%
X130922236Y-88879041D02*
X132559187Y-91714324D01*
X132559187Y-91714324D02*
X143184373Y-94561334D01*
X128730159Y-88617788D02*
X131144974Y-89264835D01*
X130922236Y-88879041D02*
X132572207Y-82721263D01*
X143184373Y-94561334D02*
X143796746Y-94207780D01*
X116621411Y-87443811D02*
X120156946Y-93567534D01*
X131144974Y-89264835D02*
X130922236Y-88879041D01*
X115839012Y-87234167D02*
X116621411Y-87443811D01*
X120156946Y-93567534D02*
X128730159Y-88617788D01*
X147106274Y-78726852D02*
X141904765Y-77333110D01*
X147679030Y-79718893D02*
X147106274Y-78726852D01*
X143796746Y-94207780D02*
X147679030Y-79718893D01*
%TO.N,GND*%
X119503098Y-74757366D02*
X126239193Y-70868278D01*
%TO.N,Net-(U1-DIS)*%
X124139908Y-83764366D02*
X122845812Y-88593996D01*
X122845812Y-88593996D02*
X123199366Y-89206370D01*
%TO.N,GND*%
X127921517Y-64589761D02*
X124385983Y-58466035D01*
X106807361Y-79637763D02*
X108221573Y-82087253D01*
X124385983Y-58466035D02*
X113277837Y-55489616D01*
X113277837Y-55489616D02*
X106807361Y-79637763D01*
%TO.N,+3V0*%
X132559187Y-91714324D02*
X132106256Y-93404694D01*
X132106256Y-93404694D02*
X132990138Y-94935626D01*
%TO.N,Net-(U1-CV)*%
X124332727Y-76051461D02*
X128386631Y-73710938D01*
X128386631Y-73710938D02*
X134544409Y-75360909D01*
%TO.N,Net-(U1-THR)*%
X116779553Y-81792165D02*
X117561955Y-82001809D01*
X114290449Y-77480908D02*
X116779553Y-81792165D01*
X121848561Y-79526936D02*
X128044978Y-81187260D01*
X128044978Y-81187260D02*
X133887006Y-77814364D01*
X117908706Y-63977388D02*
X114290449Y-77480908D01*
%TO.N,GND*%
X136766660Y-76007961D02*
X130586657Y-65303882D01*
X136180654Y-78194968D02*
X136766660Y-76007961D01*
X130586657Y-65303882D02*
X127921517Y-64589761D01*
X139932562Y-84693464D02*
X136180654Y-78194968D01*
%TO.N,Net-(U1-THR)*%
X117561955Y-82001809D02*
X121848561Y-79526936D01*
%TD*%
M02*
