M48
; DRILL file {KiCad 9.0.7} date 2026-02-09T18:39:51-0500
; FORMAT={-:-/ absolute / metric / decimal}
; #@! TF.CreationDate,2026-02-09T18:39:51-05:00
; #@! TF.GenerationSoftware,Kicad,Pcbnew,9.0.7
; #@! TF.FileFunction,Plated,1,2,PTH
FMAT,2
METRIC
; #@! TA.AperFunction,Plated,PTH,ComponentDrill
T1C0.800
; #@! TA.AperFunction,Plated,PTH,ComponentDrill
T2C0.900
%
G90
G05
T1
X115.839Y-87.234
X116.78Y-81.792
X117.909Y-63.977
X119.503Y-74.757
X121.444Y-67.513
X123.199Y-89.206
X124.14Y-83.764
X124.333Y-76.051
X132.572Y-82.721
X133.23Y-80.268
X133.887Y-77.814
X134.544Y-75.361
X139.933Y-84.693
X140.59Y-82.24
X141.247Y-79.787
X141.905Y-77.333
X150.64Y-82.19
X152.613Y-74.829
T2
X148.402Y-90.545
X149.059Y-88.091
M30
